<?xml version="1.0" encoding="iso-8859-1"?>
<!-- Uploaded to: SVG Repo, www.svgrepo.com, Generator: SVG Repo Mixer Tools -->
<svg fill="#000000" height="800px" width="800px" version="1.1" id="Layer_1" xmlns="http://www.w3.org/2000/svg" xmlns:xlink="http://www.w3.org/1999/xlink" 
	 viewBox="0 0 512 512" xml:space="preserve">
<g>
	<g>
		<path d="M497.431,383.937v-78.463c0-57.776-46.974-104.628-104.749-104.628h-81.411c-8.402-14.569-19.924-26.066-33.746-35.03
			c-6.146-3.986-12.786-7.333-19.543-9.96l130.181,7.284v-0.009c1.041,0.046,1.765,0.063,2.58,0.063
			c11.253,0,22.296-4.339,30.504-12.1c8.803-8.323,13.885-20.046,13.885-32.159c0-12.113-5.033-23.836-13.834-32.159
			c-8.803-8.322-20.794-12.707-32.875-12.03L255.42,82.086c-3.455-17.059-18.559-30.053-36.622-30.053h-2.432
			c-18.063,0-33.172,12.994-36.628,30.052L46.735,74.688c-12.096-0.68-24.082,3.735-32.885,12.058C5.049,95.069,0,106.804,0,118.918
			s5.049,23.842,13.852,32.165c8.209,7.761,19.185,12.101,30.437,12.101c0.814,0,1.629-0.021,2.443-0.067l132.259-7.409v0.732
			c-15.61,6.195-28.637,15.994-39.442,28.017c-5.949-4.229-13.209-6.506-21.048-6.506H99.07c-20.083,0-36.631,15.898-36.631,35.982
			v100.841c0,20.083,16.547,35.925,36.631,35.925h19.432c12.202,0,23.014-5.789,29.626-15.027
			c19.626,17.467,44.621,27.162,71.143,27.162c36.011,0,69.368-18.38,89.159-47.518h73.833c0.88,0,1.737,0.665,1.737,1.544v65.718
			c-10.406,6.516-16.65,17.729-16.65,30.451v10.289c0,20.085,16.376,36.65,36.459,36.65h71.768
			c20.084,0,36.423-16.565,36.423-36.649V413.03C512,401.154,506.797,390.589,497.431,383.937z M123.837,315.317
			c0,2.873-2.33,5.203-5.203,5.203H98.862c-2.873,0-5.203-2.33-5.203-5.203V214.374c0-2.873,2.33-5.203,5.203-5.203h19.772
			c2.873,0,5.203,2.33,5.203,5.203V315.317z M256,113.424l134.093-7.509c3.618-0.203,7.141,1.056,9.772,3.544
			c2.631,2.488,4.08,5.853,4.08,9.474c0,3.622-1.45,7.092-4.08,9.58c-2.631,2.488-6.069,3.65-9.686,3.65h-0.086L256,124.44V113.424z
			 M210.211,139.199V98.665v-9.036c0-3.393,2.763-6.377,6.155-6.377h2.432c3.393,0,5.982,2.985,5.982,6.377v9.036v40.534v2.329
			h-14.569V139.199z M44.986,131.949c-3.616,0.205-7.055-1.056-9.687-3.543c-2.631-2.488-4.08-5.853-4.08-9.474
			s1.45-6.986,4.08-9.474c2.449-2.314,5.596-3.565,8.934-3.565c0.25,0,0.501,0.007,0.752,0.022l134.007,7.509v11.016L44.986,131.949
			z M382.263,284.098h-82.608c-5.703,0-10.953,3.086-13.692,8.087c-13.358,24.398-38.913,39.543-66.692,39.543
			c-20.494,0-39.642-8.044-54.034-22.637c-3.924-3.979-7.059-8.328-10.181-12.94v-80.708c13.529-21.418,37.286-35.68,64.289-35.68
			c0.188,0,0.349,0,0.537,0.002c29.307,0.218,55.353,16.873,68.001,43.346c2.592,5.426,8.055,8.956,14.068,8.956h90.729
			c40.561-0.001,73.53,32.846,73.53,73.407v71.242h-50.992v-59.854C415.219,298.768,400.358,284.098,382.263,284.098z
			 M480.78,423.545c0,2.873-2.33,5.203-5.203,5.203h-71.805c-2.873,0-5.203-2.33-5.203-5.203v-10.407
			c0-2.873,2.33-5.203,5.203-5.203h71.805c2.873,0,5.203,2.33,5.203,5.203V423.545z"/>
	</g>
</g>
</svg>