<?xml version="1.0" encoding="utf-8"?><!-- Uploaded to: SVG Repo, www.svgrepo.com, Generator: SVG Repo Mixer Tools -->
<svg width="800px" height="800px" viewBox="0 0 24 24" fill="none" xmlns="http://www.w3.org/2000/svg">
<path d="M20 18V12.3246C20 12.1096 19.9653 11.896 19.8974 11.6921L18.4558 7.36754C18.1836 6.55086 17.4193 6 16.5585 6H7.44152C6.58066 6 5.81638 6.55086 5.54415 7.36754L4.10263 11.6921C4.03466 11.896 4 12.1096 4 12.3246V18M20 18H4M20 18V19.5C20 19.7761 19.7761 20 19.5 20C19.2239 20 19 19.7761 19 19.5V18M4 18V19.5C4 19.7761 4.22386 20 4.5 20C4.77614 20 5 19.7761 5 19.5V18M4.33333 11H19.6667M8 14V15M16 14V15" stroke="#000000" stroke-width="2" stroke-linecap="round" stroke-linejoin="round"/>
</svg>