<?xml version="1.0" encoding="utf-8"?>
<!-- Uploaded to: SVG Repo, www.svgrepo.com, Generator: SVG Repo Mixer Tools -->
<svg fill="#000000" width="800px" height="800px" viewBox="0 0 32 32" version="1.1" xmlns="http://www.w3.org/2000/svg">
<title>hand-holding-gift</title>
<path d="M29.287 19.252c-0.486-0.206-1.052-0.326-1.646-0.326-0.65 0-1.267 0.144-1.82 0.402l0.027-0.011-5.121 2.301c-0.32-1.36-1.523-2.356-2.959-2.356-0.058 0-0.115 0.002-0.172 0.005l0.008-0h-3.711l-4.691-1.375c-0.104-0.032-0.225-0.051-0.349-0.051-0.001 0-0.002 0-0.003 0h-1.669v-0.257c0-0.69-0.56-1.25-1.25-1.25v0h-3.883c-0.69 0-1.25 0.56-1.25 1.25v0 12.208c0 0.69 0.56 1.25 1.25 1.25h3.883c0.69-0 1.25-0.56 1.25-1.25v-0.44c1.596 0.316 2.993 0.738 4.33 1.278l-0.159-0.057c1.209 0.432 2.603 0.682 4.056 0.682 1.676 0 3.274-0.332 4.732-0.934l-0.082 0.030c1.271-0.563 2.351-1.16 3.372-1.839l-0.083 0.052c0.334-0.207 0.668-0.412 1.004-0.611 1.648-0.977 2.973-1.832 4.17-2.699 0.595-0.424 1.115-0.843 1.608-1.29l-0.014 0.013c0.428-0.353 0.769-0.795 0.997-1.3l0.009-0.023c0.052-0.133 0.082-0.287 0.082-0.448 0-0.093-0.010-0.184-0.029-0.271l0.002 0.008c-0.176-1.17-0.885-2.144-1.868-2.68l-0.019-0.010zM4.681 28.541h-1.383v-9.709h1.383zM28.379 22.174c-0.398 0.356-0.831 0.702-1.283 1.024l-0.046 0.031c-1.131 0.818-2.395 1.635-3.975 2.57-0.352 0.209-0.697 0.424-1.045 0.639-0.833 0.557-1.791 1.091-2.793 1.547l-0.129 0.052c-1.096 0.451-2.369 0.712-3.703 0.712-1.137 0-2.229-0.19-3.247-0.54l0.070 0.021c-1.451-0.607-3.148-1.097-4.911-1.392l-0.137-0.019v-6.48h1.489l4.691 1.375c0.105 0.032 0.226 0.051 0.351 0.051h3.891c0.443 0 0.697 0.17 0.697 0.469s-0.254 0.469-0.697 0.469h-6.809c-0.69 0-1.25 0.56-1.25 1.25s0.56 1.25 1.25 1.25v0h7.781c0 0 0 0 0.001 0 0.185 0 0.361-0.040 0.519-0.113l-0.008 0.003 7.803-3.504c0.228-0.105 0.494-0.167 0.774-0.167 0.183 0 0.359 0.026 0.526 0.075l-0.013-0.003c0.185 0.113 0.326 0.282 0.4 0.484l0.002 0.007c-0.066 0.064-0.137 0.129-0.201 0.189zM9.751 10.104v3.896c0.002 1.794 1.456 3.248 3.25 3.25h7.999c1.794-0.002 3.248-1.456 3.25-3.25v-3.897c0.61-0.503 0.997-1.258 1-2.103v-0.501c-0.004-1.064-0.613-1.986-1.502-2.437l-0.016-0.007c0.141-0.348 0.223-0.753 0.223-1.176 0-0.271-0.034-0.535-0.097-0.787l0.005 0.022c-0.305-1.184-1.256-2.084-2.445-2.312l-0.020-0.003c-0.149-0.023-0.32-0.036-0.494-0.036-1.235 0-2.317 0.652-2.922 1.63l-0.008 0.015-0.973 1.401-0.973-1.401c-0.613-0.993-1.695-1.645-2.929-1.645-0.175 0-0.346 0.013-0.514 0.038l0.019-0.002c-1.209 0.23-2.16 1.131-2.46 2.293l-0.005 0.022c-0.059 0.23-0.093 0.494-0.093 0.766 0 0.423 0.082 0.827 0.23 1.196l-0.008-0.022c-0.904 0.459-1.514 1.38-1.517 2.444v0.501c0.003 0.846 0.39 1.601 0.995 2.1l0.005 0.004zM11.251 8v-0.5c0.002-0.137 0.113-0.248 0.25-0.25h4.25v1h-4.25c-0.137-0.002-0.248-0.113-0.25-0.25v-0zM22.5 7.25c0.137 0.002 0.248 0.113 0.25 0.25v0.5c-0.002 0.137-0.113 0.248-0.25 0.25h-4.25v-1zM12.251 14v-3.25h3.5v4h-2.75c-0.412-0.006-0.744-0.338-0.75-0.749v-0.001zM21.75 14c-0 0.414-0.336 0.75-0.75 0.75h-2.75v-4h3.5zM20.951 3.259c0.24 0.051 0.427 0.231 0.487 0.463l0.001 0.004c0.004 0.035 0.006 0.076 0.006 0.117 0 0.365-0.168 0.691-0.431 0.905l-0.002 0.002h-1.621l0.636-0.915c0.17-0.246 0.496-0.659 0.924-0.576zM12.563 3.727c0.061-0.236 0.248-0.417 0.484-0.467l0.004-0.001c0.406-0.071 0.753 0.33 0.924 0.576l0.636 0.915h-1.622c-0.265-0.215-0.432-0.54-0.432-0.905 0-0.042 0.002-0.083 0.007-0.124l-0 0.005z"></path>
</svg>