<?xml version="1.0" encoding="utf-8"?><!-- Uploaded to: SVG Repo, www.svgrepo.com, Generator: SVG Repo Mixer Tools -->
<svg fill="#000000" width="800px" height="800px" viewBox="0 -20.62 67 67" xmlns="http://www.w3.org/2000/svg">
  <path id="Shoe" d="M179,256.625c0,6.835-2.061,12.375-4.6,12.375a1.845,1.845,0,0,1-.7-.16,4.6,4.6,0,0,1-1.145.16H120.373a5.753,5.753,0,0,1-1.767-.31c-3.837-.79-6.606-3.016-6.606-5.644,0-2.168,1.857-3.935,4.7-5.1a18.859,18.859,0,0,1,2.671-.86s4.758-1.772,10.928-4.45l-.167-.267a.881.881,0,0,1,.366-1.256,1.049,1.049,0,0,1,1.366.337l.245.391c.754-.335,1.519-.677,2.3-1.033l-.275-.438a.88.88,0,0,1,.366-1.256,1.049,1.049,0,0,1,1.366.337l.332.53q1.13-.53,2.269-1.079l-.333-.531a.88.88,0,0,1,.366-1.256,1.049,1.049,0,0,1,1.366.337l.365.581c1.55-.775,3.087-1.573,4.569-2.389a4.383,4.383,0,0,1,.86-.343c3.4,1.581,9.139,2.62,15.651,2.62.189,0,.351-.006.535-.007a13.02,13.02,0,0,0,4.938-.2c5.541-.468,8.539-4.342,9.178-4.358,2.7-.77.868,2.476,1.558,4.189A25.35,25.35,0,0,1,179,256.625Zm-3.043-4.962c-.64-.18-1.592-.413-2.957-.663-1.848-.338-6.594-.65-9.811-.833a11.632,11.632,0,0,1-3.551.014c-.165,0-.31.006-.479.006-5.832,0-9.973-.927-13.016-2.338a3.946,3.946,0,0,0-.77.306c-1.238.679-2.519,1.344-3.812,1.992l.3.485a.88.88,0,0,1-.366,1.256,1.049,1.049,0,0,1-1.366-.337l-.336-.535q-1.14.552-2.271,1.076l.339.54a.88.88,0,0,1-.366,1.256,1.049,1.049,0,0,1-1.366-.337l-.4-.635c-.782.354-1.551.7-2.3,1.026l.433.689a.88.88,0,0,1-.366,1.256,1.049,1.049,0,0,1-1.366-.337l-.517-.824c-4.461,1.91-7.967,3.246-8.8,3.56a29.818,29.818,0,0,0-5.105,1.937c4.923-.284,15.044-.633,17.293,1.114l4.713,3.66h29.51a4.125,4.125,0,0,0,1.025-.143,1.658,1.658,0,0,0,.631.143c2.277,0,5.122-1.944,5.122-8.042C176,254.744,176.029,253.007,175.957,251.663ZM145.5,252a1.5,1.5,0,1,1,1.5-1.5A1.5,1.5,0,0,1,145.5,252Zm-22.9,6.367.209-.078C123.068,258.221,123.049,258.24,122.6,258.367Z" transform="translate(-112 -243.236)"/>
</svg>