<?xml version="1.0" encoding="iso-8859-1"?>
<!-- Uploaded to: SVG Repo, www.svgrepo.com, Generator: SVG Repo Mixer Tools -->
<!DOCTYPE svg PUBLIC "-//W3C//DTD SVG 1.1//EN" "http://www.w3.org/Graphics/SVG/1.1/DTD/svg11.dtd">
<svg fill="#000000" height="800px" width="800px" version="1.1" id="Capa_1" xmlns="http://www.w3.org/2000/svg" xmlns:xlink="http://www.w3.org/1999/xlink" 
	 viewBox="0 0 297 297" xml:space="preserve">
<path d="M259.474,174.945l-20.519-58.896c10.066-3.656,17.275-13.315,17.275-24.627V58.807c0-3.842-2.197-7.164-5.399-8.8
	c-0.023-0.013-0.043-0.029-0.065-0.041L152.92,1.044c-2.782-1.392-6.058-1.392-8.84,0L46.233,49.967
	c-0.018,0.009-0.029,0.023-0.046,0.032c-3.212,1.632-5.418,4.959-5.418,8.809v32.615c0,11.312,7.209,20.971,17.275,24.627
	l-20.52,58.896c-14.313,0.151-25.912,11.836-25.912,26.185c0,14.442,11.749,26.191,26.191,26.191s26.191-11.749,26.191-26.191
	c0-7.419-3.105-14.122-8.079-18.892l23.644-67.865c1.307-0.721,2.549-1.544,3.708-2.469c3.642,2.905,8.079,4.837,12.92,5.468
	l-5.929,65.215c-9.854,3.764-16.874,13.311-16.874,24.473c0,14.442,11.749,26.191,26.191,26.191c14.441,0,26.19-11.749,26.19-26.191
	c0-10.714-6.469-19.939-15.702-23.992l6.428-70.717c4.38,3.294,9.809,5.264,15.699,5.264c2.217,0,4.367-0.287,6.424-0.808v127.811
	H50.653c-5.458,0-9.884,4.426-9.884,9.884v32.615c0,5.458,4.426,9.884,9.884,9.884h195.693c5.458,0,9.884-4.426,9.884-9.884v-32.615
	c0-5.458-4.426-9.884-9.884-9.884h-87.963V116.806c2.057,0.521,4.207,0.808,6.424,0.808c5.89,0,11.318-1.97,15.699-5.264
	l6.428,70.717c-9.234,4.053-15.702,13.278-15.702,23.992c0,14.442,11.749,26.191,26.191,26.191
	c14.442,0,26.191-11.749,26.191-26.191c0-11.161-7.02-20.709-16.874-24.473l-5.929-65.215c4.841-0.631,9.278-2.563,12.92-5.468
	c1.159,0.925,2.401,1.748,3.708,2.469l23.643,67.865c-4.975,4.77-8.079,11.473-8.079,18.892c0,14.442,11.749,26.191,26.191,26.191
	c14.442,0,26.191-11.749,26.191-26.191C285.387,186.781,273.788,175.096,259.474,174.945z M236.463,277.232H60.537v-12.849h175.926
	V277.232z M148.5,20.934l55.98,27.989H92.52L148.5,20.934z M37.805,207.553c-3.542,0-6.424-2.882-6.424-6.424
	c0-3.542,2.882-6.425,6.424-6.425s6.425,2.883,6.425,6.425C44.229,204.672,41.347,207.553,37.805,207.553z M99.577,213.484
	c-3.543,0-6.425-2.883-6.425-6.425c0-3.542,2.882-6.424,6.425-6.424c3.542,0,6.424,2.882,6.424,6.424
	C106.001,210.601,103.119,213.484,99.577,213.484z M197.423,213.484c-3.542,0-6.424-2.883-6.424-6.425
	c0-3.542,2.882-6.424,6.424-6.424c3.543,0,6.425,2.882,6.425,6.424C203.848,210.601,200.966,213.484,197.423,213.484z
	 M203.848,91.423c0,3.542-2.882,6.424-6.425,6.424c-3.542,0-6.424-2.882-6.424-6.424c0-5.458-4.426-9.884-9.884-9.884
	c-5.458,0-9.883,4.426-9.883,9.884c0,3.542-2.883,6.424-6.425,6.424c-3.542,0-6.424-2.882-6.424-6.424
	c0-5.458-4.426-9.884-9.884-9.884c-5.458,0-9.884,4.426-9.884,9.884c0,3.542-2.882,6.424-6.424,6.424
	c-3.543,0-6.425-2.882-6.425-6.424c0-5.458-4.425-9.884-9.883-9.884s-9.884,4.426-9.884,9.884c0,3.542-2.882,6.424-6.424,6.424
	c-3.543,0-6.425-2.882-6.425-6.424c0-5.458-4.426-9.884-9.884-9.884c-5.458,0-9.883,4.426-9.883,9.884
	c0,3.542-2.883,6.424-6.425,6.424s-6.424-2.882-6.424-6.424V68.69h175.926v22.732c0,3.542-2.882,6.424-6.424,6.424
	c-3.542,0-6.425-2.882-6.425-6.424c0-5.458-4.425-9.884-9.883-9.884C208.272,81.539,203.848,85.965,203.848,91.423z
	 M259.195,207.553c-3.542,0-6.425-2.882-6.425-6.424c0-3.542,2.883-6.425,6.425-6.425c3.542,0,6.424,2.883,6.424,6.425
	C265.619,204.672,262.737,207.553,259.195,207.553z"/>
</svg>